<?xml version="1.0" encoding="UTF-8" standalone="no"?>
<svg
   xmlns:svg="http://www.w3.org/2000/svg"
   xmlns="http://www.w3.org/2000/svg"
   version="1.0"
   width="346"
   height="294"
   id="svg2">
  <defs
     id="defs4">
    <marker
       markerUnits="strokeWidth"
       refX="0"
       refY="5"
       markerWidth="4"
       markerHeight="3"
       orient="auto"
       viewBox="0 0 10 10"
       id="ArrowEnd">
      <path
         d="M 0,0 L 10,5 L 0,10 L 0,0 z "
         id="path7" />
    </marker>
    <marker
       markerUnits="strokeWidth"
       refX="10"
       refY="5"
       markerWidth="4"
       markerHeight="3"
       orient="auto"
       viewBox="0 0 10 10"
       id="ArrowStart">
      <path
         d="M 10,0 L 0,5 L 10,10 L 10,0 z "
         id="path10" />
    </marker>
  </defs>
  <g
     transform="matrix(3.510524,0,0,3.510524,-238.6164,-2.170853)"
     id="g12">
    <path
       d="M 0,721.988 L 0,721.988 L 0,721.988 z "
       style="fill:#0099CC;fill-rule:evenodd;stroke:none"
       id="path14" />
    <path
       d="M 0,721.988 L 0,721.988 L 0,721.988 z "
       style="fill:#0099CC;fill-rule:evenodd;stroke:none"
       id="path16" />
    <path
       d="M 117.393,70.028 L 81.96,70.028 L 152.826,13.335 L 152.826,70.028 L 117.393,70.028 z "
       style="fill:none;stroke:#0099CC;stroke-width:0.74719799"
       id="path18" />
    <path
       d="M 76.6648,68.854 C 76.615,68.724 76.595,68.688 76.436,68.688 C 76.2771,68.688 76.2471,68.738 76.1973,68.854 L 74.1355,74.812 C 73.9536,75.3199 73.5476,75.47 73.0007,75.48 L 73.0007,75.789 C 73.2336,75.779 73.6707,75.759 74.0356,75.759 C 74.3325,75.759 74.8315,75.779 75.1375,75.789 L 75.1375,75.489 C 74.6685,75.489 74.3906,75.236 74.3906,74.972 C 74.3906,74.942 74.4226,74.842 74.4536,74.823 L 74.9114,73.489 L 77.3723,73.489 L 77.9001,75.042 C 77.9099,75.082 77.9111,75.142 77.9111,75.181 C 77.9111,75.48 77.3533,75.489 77.0842,75.489 L 77.0842,75.789 C 77.447,75.759 78.1541,75.759 78.5371,75.759 C 78.9509,75.759 79.394,75.769 79.7991,75.789 L 79.7991,75.489 L 79.6631,75.489 C 79.0652,75.489 78.9263,75.418 78.8162,75.082 L 76.6648,68.854 z M 76.137,69.97 L 77.2629,73.188 L 75.021,73.188"
       style="fill:#0099CC;fill-rule:evenodd;stroke:none"
       id="path20" />
    <path
       d="M 156.5,8.28796 L 156.5,5.79095 C 156.5,5.46198 156.52,5.388 157,5.388 L 158.235,5.388 C 159.201,5.388 159.5,6.23798 159.5,6.76697 C 159.5,7.40497 159.027,8.28796 157.956,8.28796 L 156.5,8.28796 z M 158.863,8.33099 C 159.829,8.14197 160.5,7.50397 160.5,6.76697 C 160.5,5.89996 159.59,5.08795 158.305,5.08795 L 154.659,5.08795 L 154.659,5.388 L 154.898,5.388 C 155.665,5.388 155.699,5.49896 155.699,5.86096 L 155.699,11.111 C 155.699,11.47 155.68,11.588 154.898,11.588 L 154.659,11.588 L 154.659,11.887 L 158.564,11.887 C 159.889,11.887 160.8,11 160.8,10.064 C 160.8,9.19696 159.977,8.45099 158.863,8.33197 L 158.863,8.33099 z M 158.245,11.588 L 157,11.588 C 156.532,11.588 156.5,11.517 156.5,11.181 L 156.5,8.48798 L 158.385,8.48798 C 159.371,8.48798 159.8,9.39899 159.8,10.055 C 159.8,10.762 159.278,11.588 158.245,11.588"
       style="fill:#0099CC;fill-rule:evenodd;stroke:none"
       id="path22" />
    <path
       d="M 161.5,69.803 C 161.5,69.634 161.525,69.568 161.416,69.568 C 161.376,69.568 161.336,69.564 161.257,69.683 L 160.759,70.42 C 160.39,70.061 159.882,69.568 158.927,69.568 C 157.064,69.568 155.502,71.15 155.502,73.18 C 155.502,75.242 157.096,76.806 158.927,76.806 C 160.55,76.806 161.501,75.421 161.501,74.266 C 161.501,74.166 161.526,74.097 161.398,74.097 C 161.264,74.097 161.264,74.157 161.252,74.256 C 161.173,75.681 160.12,76.506 159.047,76.506 C 158.439,76.506 156.503,76.166 156.503,73.19 C 156.503,70.212 158.434,69.869 159.038,69.869 C 160.124,69.869 161.011,70.777 161.21,72.235 C 161.229,72.373 161.229,72.404 161.369,72.404 C 161.528,72.404 161.502,72.374 161.502,72.165"
       style="fill:#0099CC;fill-rule:evenodd;stroke:none"
       id="path24" />
    <path
       d="M 152.826,65.776 L 148.574,65.776 L 148.574,70.028"
       style="fill:none;stroke:#0099CC;stroke-width:0.74719799"
       id="path26" />
    <path
       d="M 117.581,72.9839 C 117.581,72.974 117.581,72.879 117.451,72.879 C 117.222,72.879 116.495,72.955 116.236,72.974 C 116.156,72.9839 116.078,72.994 116.078,73.173 C 116.078,73.293 116.156,73.279 116.285,73.279 C 116.763,73.279 116.783,73.354 116.783,73.462 C 116.783,73.532 116.693,73.87 116.644,74.08 L 115.827,77.328 C 115.707,77.825 115.699,77.986 115.699,78.3329 C 115.699,79.279 116.214,79.897 116.932,79.897 C 118.108,79.897 119.298,78.414 119.298,76.978 C 119.298,76.071 118.784,75.379 118.007,75.379 C 117.549,75.379 117.14,75.671 116.841,75.982 L 117.581,72.9839 z M 116.645,76.749 C 116.705,76.53 116.705,76.5099 116.794,76.4 C 117.281,75.752 117.729,75.578 117.99,75.578 C 118.348,75.578 118.599,75.8849 118.599,76.54 C 118.599,77.128 118.281,78.2729 118.108,78.652 C 117.78,79.3199 117.322,79.697 116.933,79.697 C 116.594,79.697 116.3,79.423 116.3,78.672 C 116.3,78.483 116.266,78.293 116.425,77.666"
       style="fill:#0099CC;fill-rule:evenodd;stroke:none"
       id="path28" />
    <path
       d="M 159.316,40.1219 C 159.137,39.753 158.848,39.478 158.399,39.478 C 157.233,39.478 155.999,40.946 155.999,42.403 C 155.999,43.339 156.546,43.9969 157.323,43.9969 C 157.522,43.9969 158.02,43.957 158.618,43.25 C 158.698,43.668 159.046,43.9969 159.525,43.9969 C 159.874,43.9969 160.103,43.768 160.262,43.449 C 160.431,43.09 160.561,42.483 160.561,42.463 C 160.561,42.363 160.471,42.363 160.441,42.363 C 160.341,42.363 160.331,42.403 160.302,42.542 C 160.133,43.19 159.953,43.797 159.545,43.797 C 159.276,43.797 159.246,43.528 159.246,43.321 C 159.246,43.102 159.266,43.022 159.376,42.584 C 159.486,42.166 159.506,42.066 159.595,41.687 C 159.764,41.049 159.804,40.86 159.954,40.292 C 160.024,40.013 160.024,39.993 160.024,39.953 C 160.024,39.784 159.904,39.678 159.735,39.678 C 159.496,39.678 159.346,39.9 159.317,40.1219 L 159.316,40.1219 z M 158.668,42.702 C 158.618,42.881 158.618,42.901 158.469,43.071 C 158.031,43.619 157.622,43.798 157.343,43.798 C 156.845,43.798 156.7,43.239 156.7,42.842 C 156.7,42.344 157.022,41.118 157.254,40.66 C 157.563,40.072 158.011,39.678 158.41,39.678 C 159.058,39.678 159.197,40.519 159.197,40.58 C 159.197,40.64 159.177,40.7 159.167,40.749"
       style="fill:#0099CC;fill-rule:evenodd;stroke:none"
       id="path30" />
    <path
       d="M 113.945,34.888 C 113.786,34.888 113.646,34.902 113.507,35.042 C 113.348,35.191 113.31,35.361 113.31,35.431 C 113.31,35.67 113.498,35.789 113.696,35.789 C 113.985,35.789 114.254,35.546 114.254,35.142 C 114.254,34.654 113.786,34.279 113.078,34.279 C 111.733,34.279 110.4,35.707 110.4,37.114 C 110.4,38.011 110.981,38.798 112.022,38.798 C 113.447,38.798 114.284,37.742 114.284,37.6219 C 114.284,37.562 114.224,37.493 114.164,37.493 C 114.114,37.493 114.094,37.513 114.035,37.593 C 113.248,38.579 112.162,38.598 112.042,38.598 C 111.414,38.598 111.1,38.101 111.1,37.493 C 111.1,37.085 111.316,36.118 111.684,35.5 C 111.993,34.9319 112.541,34.478 113.089,34.478 C 113.428,34.478 113.806,34.616 113.946,34.902"
       style="fill:#0099CC;fill-rule:evenodd;stroke:none"
       id="path32" />
  </g>
</svg>
